<svg xmlns="http://www.w3.org/2000/svg" xmlns:xlink="http://www.w3.org/1999/xlink" width="500" zoomAndPan="magnify" viewBox="0 0 375 149.999998" height="200" preserveAspectRatio="xMidYMid meet" version="1.2"><defs><clipPath id="ceb337ee0b"><path d="M 13.867188 34.757812 L 94.117188 34.757812 L 94.117188 115 L 13.867188 115 Z M 13.867188 34.757812 "/></clipPath><clipPath id="4683048b97"><path d="M 13.867188 60.226562 C 13.867188 59.183594 14.296875 58.21875 14.964844 57.550781 C 15.660156 56.855469 16.597656 56.425781 17.640625 56.425781 C 18.683594 56.425781 19.644531 56.855469 20.3125 57.550781 C 20.582031 57.816406 20.824219 58.113281 20.984375 58.460938 L 29.515625 58.460938 L 29.515625 56.265625 C 29.515625 54.632812 30.160156 53.191406 31.226562 52.121094 C 32.296875 51.050781 33.742188 50.40625 35.375 50.40625 L 37.566406 50.40625 L 37.566406 41.875 C 37.21875 41.714844 36.925781 41.472656 36.660156 41.207031 C 35.964844 40.539062 35.535156 39.574219 35.535156 38.53125 C 35.535156 37.488281 35.964844 36.550781 36.660156 35.855469 C 37.328125 35.1875 38.289062 34.757812 39.332031 34.757812 C 40.375 34.757812 41.3125 35.1875 41.980469 35.855469 C 42.675781 36.550781 43.105469 37.488281 43.105469 38.53125 C 43.105469 39.574219 42.675781 40.539062 41.980469 41.207031 C 41.714844 41.472656 41.421875 41.714844 41.074219 41.875 L 41.074219 50.40625 L 52.199219 50.40625 L 52.199219 41.875 C 51.878906 41.714844 51.558594 41.472656 51.289062 41.207031 C 50.621094 40.539062 50.195312 39.574219 50.195312 38.53125 C 50.195312 37.488281 50.621094 36.550781 51.289062 35.855469 C 51.988281 35.1875 52.921875 34.757812 53.964844 34.757812 C 55.007812 34.757812 55.945312 35.1875 56.640625 35.855469 C 57.335938 36.550781 57.738281 37.488281 57.738281 38.53125 C 57.738281 39.574219 57.335938 40.539062 56.640625 41.207031 C 56.375 41.472656 56.078125 41.714844 55.730469 41.875 L 55.730469 50.40625 L 66.859375 50.40625 L 66.859375 41.875 C 66.511719 41.714844 66.21875 41.472656 65.949219 41.207031 C 65.253906 40.539062 64.851562 39.574219 64.851562 38.53125 C 64.851562 37.488281 65.253906 36.550781 65.949219 35.855469 C 66.617188 35.1875 67.582031 34.757812 68.625 34.757812 C 69.667969 34.757812 70.605469 35.1875 71.300781 35.855469 C 71.96875 36.550781 72.398438 37.488281 72.398438 38.53125 C 72.398438 39.574219 71.96875 40.539062 71.300781 41.207031 C 71.03125 41.472656 70.710938 41.714844 70.363281 41.875 L 70.363281 50.40625 L 72.582031 50.40625 C 74.1875 50.40625 75.660156 51.050781 76.703125 52.121094 C 77.773438 53.191406 78.441406 54.632812 78.441406 56.265625 L 78.441406 58.460938 L 86.949219 58.460938 C 87.136719 58.113281 87.351562 57.816406 87.617188 57.550781 C 88.3125 56.855469 89.25 56.425781 90.292969 56.425781 C 91.335938 56.425781 92.273438 56.855469 92.96875 57.550781 C 93.664062 58.21875 94.0625 59.183594 94.0625 60.226562 C 94.0625 61.269531 93.664062 62.203125 92.96875 62.875 C 92.273438 63.570312 91.335938 63.996094 90.292969 63.996094 C 89.25 63.996094 88.3125 63.570312 87.617188 62.875 C 87.351562 62.605469 87.136719 62.3125 86.949219 61.964844 L 78.441406 61.964844 L 78.441406 73.09375 L 86.949219 73.09375 C 87.136719 72.769531 87.351562 72.449219 87.617188 72.183594 C 88.3125 71.515625 89.25 71.085938 90.292969 71.085938 C 91.335938 71.085938 92.273438 71.515625 92.96875 72.183594 C 93.664062 72.878906 94.0625 73.8125 94.0625 74.859375 C 94.0625 75.902344 93.664062 76.835938 92.96875 77.53125 C 92.273438 78.226562 91.335938 78.628906 90.292969 78.628906 C 89.25 78.628906 88.3125 78.226562 87.617188 77.53125 C 87.351562 77.265625 87.136719 76.96875 86.949219 76.621094 L 78.441406 76.621094 L 78.441406 87.75 L 86.949219 87.75 C 87.136719 87.402344 87.351562 87.109375 87.617188 86.839844 C 88.3125 86.144531 89.25 85.746094 90.292969 85.746094 C 91.335938 85.746094 92.273438 86.144531 92.96875 86.839844 C 93.664062 87.511719 94.0625 88.472656 94.0625 89.515625 C 94.0625 90.558594 93.664062 91.496094 92.96875 92.191406 C 92.273438 92.859375 91.335938 93.289062 90.292969 93.289062 C 89.25 93.289062 88.3125 92.859375 87.617188 92.191406 C 87.351562 91.925781 87.136719 91.601562 86.949219 91.253906 L 78.441406 91.253906 L 78.441406 93.476562 C 78.441406 95.082031 77.773438 96.550781 76.703125 97.59375 C 75.660156 98.664062 74.1875 99.332031 72.582031 99.332031 L 70.363281 99.332031 L 70.363281 107.839844 C 70.710938 108.027344 71.03125 108.242188 71.300781 108.507812 C 71.96875 109.203125 72.398438 110.140625 72.398438 111.183594 C 72.398438 112.226562 71.96875 113.164062 71.300781 113.859375 C 70.605469 114.554688 69.667969 114.957031 68.625 114.957031 C 67.582031 114.957031 66.617188 114.554688 65.949219 113.859375 C 65.253906 113.164062 64.851562 112.226562 64.851562 111.183594 C 64.851562 110.140625 65.253906 109.203125 65.949219 108.507812 C 66.21875 108.242188 66.511719 108.027344 66.859375 107.839844 L 66.859375 99.332031 L 55.730469 99.332031 L 55.730469 107.839844 C 56.078125 108.027344 56.375 108.242188 56.640625 108.507812 C 57.335938 109.203125 57.738281 110.140625 57.738281 111.183594 C 57.738281 112.226562 57.335938 113.164062 56.640625 113.859375 C 55.945312 114.554688 55.007812 114.957031 53.964844 114.957031 C 52.921875 114.957031 51.988281 114.554688 51.289062 113.859375 C 50.621094 113.164062 50.195312 112.226562 50.195312 111.183594 C 50.195312 110.140625 50.621094 109.203125 51.289062 108.507812 C 51.558594 108.242188 51.878906 108.027344 52.199219 107.839844 L 52.199219 99.332031 L 41.074219 99.332031 L 41.074219 107.839844 C 41.421875 108.027344 41.714844 108.242188 41.980469 108.507812 C 42.675781 109.203125 43.105469 110.140625 43.105469 111.183594 C 43.105469 112.226562 42.675781 113.164062 41.980469 113.859375 C 41.3125 114.554688 40.375 114.957031 39.332031 114.957031 C 38.289062 114.957031 37.328125 114.554688 36.660156 113.859375 C 35.964844 113.164062 35.535156 112.226562 35.535156 111.183594 C 35.535156 110.140625 35.964844 109.203125 36.660156 108.507812 C 36.925781 108.242188 37.21875 108.027344 37.566406 107.839844 L 37.566406 99.332031 L 35.375 99.332031 C 33.742188 99.332031 32.296875 98.664062 31.226562 97.59375 C 30.160156 96.550781 29.515625 95.082031 29.515625 93.476562 L 29.515625 91.253906 L 20.984375 91.253906 C 20.824219 91.601562 20.582031 91.925781 20.3125 92.191406 C 19.644531 92.859375 18.683594 93.289062 17.640625 93.289062 C 16.597656 93.289062 15.660156 92.859375 14.964844 92.191406 C 14.296875 91.496094 13.867188 90.558594 13.867188 89.515625 C 13.867188 88.472656 14.296875 87.511719 14.964844 86.839844 C 15.660156 86.144531 16.597656 85.746094 17.640625 85.746094 C 18.683594 85.746094 19.644531 86.144531 20.3125 86.839844 C 20.582031 87.109375 20.824219 87.402344 20.984375 87.75 L 29.515625 87.75 L 29.515625 76.621094 L 20.984375 76.621094 C 20.824219 76.96875 20.582031 77.265625 20.3125 77.53125 C 19.644531 78.226562 18.683594 78.628906 17.640625 78.628906 C 16.597656 78.628906 15.660156 78.226562 14.964844 77.53125 C 14.296875 76.835938 13.867188 75.902344 13.867188 74.859375 C 13.867188 73.8125 14.296875 72.878906 14.964844 72.183594 C 15.660156 71.515625 16.597656 71.085938 17.640625 71.085938 C 18.683594 71.085938 19.644531 71.515625 20.3125 72.183594 C 20.582031 72.449219 20.824219 72.769531 20.984375 73.09375 L 29.515625 73.09375 L 29.515625 61.964844 L 20.984375 61.964844 C 20.824219 62.3125 20.582031 62.605469 20.3125 62.875 C 19.644531 63.570312 18.683594 63.996094 17.640625 63.996094 C 16.597656 63.996094 15.660156 63.570312 14.964844 62.875 C 14.296875 62.203125 13.867188 61.269531 13.867188 60.226562 Z M 41.980469 58.460938 L 65.976562 58.460938 C 67.179688 58.460938 68.277344 58.941406 69.078125 59.742188 C 69.882812 60.546875 70.363281 61.644531 70.363281 62.875 L 70.363281 86.867188 C 70.363281 88.070312 69.882812 89.167969 69.078125 89.972656 C 68.277344 90.773438 67.179688 91.253906 65.976562 91.253906 L 41.980469 91.253906 C 40.75 91.253906 39.65625 90.773438 38.851562 89.972656 C 38.050781 89.167969 37.566406 88.070312 37.566406 86.867188 L 37.566406 62.875 C 37.566406 61.644531 38.050781 60.546875 38.851562 59.742188 C 39.65625 58.941406 40.75 58.460938 41.980469 58.460938 Z M 65.976562 61.964844 L 41.980469 61.964844 C 41.714844 61.964844 41.5 62.070312 41.339844 62.230469 C 41.179688 62.390625 41.074219 62.605469 41.074219 62.875 L 41.074219 86.867188 C 41.074219 87.109375 41.179688 87.324219 41.339844 87.484375 C 41.5 87.644531 41.714844 87.75 41.980469 87.75 L 65.976562 87.75 C 66.21875 87.75 66.429688 87.644531 66.59375 87.484375 C 66.753906 87.324219 66.859375 87.109375 66.859375 86.867188 L 66.859375 81.304688 L 61.804688 81.304688 L 61.804688 77.800781 L 66.859375 77.800781 L 66.859375 71.941406 L 55.007812 71.941406 L 55.007812 68.410156 L 66.859375 68.410156 L 66.859375 62.875 C 66.859375 62.605469 66.753906 62.390625 66.59375 62.230469 C 66.429688 62.070312 66.21875 61.964844 65.976562 61.964844 Z M 72.582031 53.914062 L 35.375 53.914062 C 34.734375 53.914062 34.144531 54.179688 33.714844 54.609375 C 33.289062 55.035156 33.019531 55.625 33.019531 56.265625 L 33.019531 93.476562 C 33.019531 94.117188 33.289062 94.679688 33.714844 95.105469 C 34.144531 95.535156 34.734375 95.800781 35.375 95.800781 L 72.582031 95.800781 C 73.226562 95.800781 73.789062 95.535156 74.214844 95.105469 C 74.644531 94.679688 74.910156 94.117188 74.910156 93.476562 L 74.910156 56.265625 C 74.910156 55.625 74.644531 55.035156 74.214844 54.609375 C 73.789062 54.179688 73.226562 53.914062 72.582031 53.914062 Z M 72.582031 53.914062 "/></clipPath><linearGradient x1="-2.796823" gradientTransform="matrix(2.675,0,0,2.675,13.867653,34.759194)" y1="9.07948" x2="33.019619" gradientUnits="userSpaceOnUse" y2="20.112299" id="f09007bd8d"><stop style="stop-color:#a26e4d;stop-opacity:1;" offset="0"/><stop style="stop-color:#a26f4d;stop-opacity:1;" offset="0.0078125"/><stop style="stop-color:#a36f4e;stop-opacity:1;" offset="0.015625"/><stop style="stop-color:#a3704e;stop-opacity:1;" offset="0.0234375"/><stop style="stop-color:#a4704f;stop-opacity:1;" offset="0.03125"/><stop style="stop-color:#a5714f;stop-opacity:1;" offset="0.0390625"/><stop style="stop-color:#a57250;stop-opacity:1;" offset="0.046875"/><stop style="stop-color:#a67250;stop-opacity:1;" offset="0.0546875"/><stop style="stop-color:#a77351;stop-opacity:1;" offset="0.0625"/><stop style="stop-color:#a87452;stop-opacity:1;" offset="0.0703125"/><stop style="stop-color:#a87452;stop-opacity:1;" offset="0.078125"/><stop style="stop-color:#a97553;stop-opacity:1;" offset="0.0859375"/><stop style="stop-color:#aa7553;stop-opacity:1;" offset="0.09375"/><stop style="stop-color:#aa7654;stop-opacity:1;" offset="0.101562"/><stop style="stop-color:#ab7754;stop-opacity:1;" offset="0.109375"/><stop style="stop-color:#ac7755;stop-opacity:1;" offset="0.117187"/><stop style="stop-color:#ac7855;stop-opacity:1;" offset="0.125"/><stop style="stop-color:#ad7956;stop-opacity:1;" offset="0.132812"/><stop style="stop-color:#ae7956;stop-opacity:1;" offset="0.140625"/><stop style="stop-color:#af7a57;stop-opacity:1;" offset="0.148438"/><stop style="stop-color:#af7a57;stop-opacity:1;" offset="0.15625"/><stop style="stop-color:#b07b58;stop-opacity:1;" offset="0.164062"/><stop style="stop-color:#b17c58;stop-opacity:1;" offset="0.171875"/><stop style="stop-color:#b17c59;stop-opacity:1;" offset="0.179688"/><stop style="stop-color:#b27d59;stop-opacity:1;" offset="0.1875"/><stop style="stop-color:#b37e5a;stop-opacity:1;" offset="0.195312"/><stop style="stop-color:#b37e5b;stop-opacity:1;" offset="0.203125"/><stop style="stop-color:#b47f5b;stop-opacity:1;" offset="0.210937"/><stop style="stop-color:#b5805c;stop-opacity:1;" offset="0.21875"/><stop style="stop-color:#b6805c;stop-opacity:1;" offset="0.226562"/><stop style="stop-color:#b6815d;stop-opacity:1;" offset="0.234375"/><stop style="stop-color:#b7815d;stop-opacity:1;" offset="0.235496"/><stop style="stop-color:#b7825d;stop-opacity:1;" offset="0.242188"/><stop style="stop-color:#b8825e;stop-opacity:1;" offset="0.25"/><stop style="stop-color:#b8835e;stop-opacity:1;" offset="0.257812"/><stop style="stop-color:#b9835f;stop-opacity:1;" offset="0.265625"/><stop style="stop-color:#ba845f;stop-opacity:1;" offset="0.273438"/><stop style="stop-color:#bb8560;stop-opacity:1;" offset="0.28125"/><stop style="stop-color:#bb8560;stop-opacity:1;" offset="0.289063"/><stop style="stop-color:#bc8661;stop-opacity:1;" offset="0.296875"/><stop style="stop-color:#bd8661;stop-opacity:1;" offset="0.304688"/><stop style="stop-color:#bd8762;stop-opacity:1;" offset="0.3125"/><stop style="stop-color:#be8862;stop-opacity:1;" offset="0.320313"/><stop style="stop-color:#bf8863;stop-opacity:1;" offset="0.328125"/><stop style="stop-color:#bf8964;stop-opacity:1;" offset="0.335938"/><stop style="stop-color:#c08a64;stop-opacity:1;" offset="0.34375"/><stop style="stop-color:#c18a65;stop-opacity:1;" offset="0.351562"/><stop style="stop-color:#c28b65;stop-opacity:1;" offset="0.359375"/><stop style="stop-color:#c28b66;stop-opacity:1;" offset="0.367187"/><stop style="stop-color:#c38c66;stop-opacity:1;" offset="0.375"/><stop style="stop-color:#c48d67;stop-opacity:1;" offset="0.382812"/><stop style="stop-color:#c48d67;stop-opacity:1;" offset="0.390625"/><stop style="stop-color:#c58e68;stop-opacity:1;" offset="0.398437"/><stop style="stop-color:#c68f68;stop-opacity:1;" offset="0.40625"/><stop style="stop-color:#c68f69;stop-opacity:1;" offset="0.414062"/><stop style="stop-color:#c79069;stop-opacity:1;" offset="0.421875"/><stop style="stop-color:#c8906a;stop-opacity:1;" offset="0.429688"/><stop style="stop-color:#c9916a;stop-opacity:1;" offset="0.4375"/><stop style="stop-color:#c9926b;stop-opacity:1;" offset="0.445312"/><stop style="stop-color:#ca926b;stop-opacity:1;" offset="0.453125"/><stop style="stop-color:#cb936c;stop-opacity:1;" offset="0.460938"/><stop style="stop-color:#cb946d;stop-opacity:1;" offset="0.46875"/><stop style="stop-color:#cc946d;stop-opacity:1;" offset="0.476562"/><stop style="stop-color:#cd956e;stop-opacity:1;" offset="0.484375"/><stop style="stop-color:#cd956e;stop-opacity:1;" offset="0.492188"/><stop style="stop-color:#ce966f;stop-opacity:1;" offset="0.5"/><stop style="stop-color:#cf976f;stop-opacity:1;" offset="0.507812"/><stop style="stop-color:#d09770;stop-opacity:1;" offset="0.515625"/><stop style="stop-color:#d09870;stop-opacity:1;" offset="0.523438"/><stop style="stop-color:#d19971;stop-opacity:1;" offset="0.53125"/><stop style="stop-color:#d29971;stop-opacity:1;" offset="0.539062"/><stop style="stop-color:#d29a72;stop-opacity:1;" offset="0.546875"/><stop style="stop-color:#d39a72;stop-opacity:1;" offset="0.554688"/><stop style="stop-color:#d49b73;stop-opacity:1;" offset="0.5625"/><stop style="stop-color:#d49c73;stop-opacity:1;" offset="0.570312"/><stop style="stop-color:#d59c74;stop-opacity:1;" offset="0.578125"/><stop style="stop-color:#d69d74;stop-opacity:1;" offset="0.585937"/><stop style="stop-color:#d79e75;stop-opacity:1;" offset="0.59375"/><stop style="stop-color:#d79e76;stop-opacity:1;" offset="0.601562"/><stop style="stop-color:#d89f76;stop-opacity:1;" offset="0.609375"/><stop style="stop-color:#d9a077;stop-opacity:1;" offset="0.617187"/><stop style="stop-color:#d9a077;stop-opacity:1;" offset="0.625"/><stop style="stop-color:#daa178;stop-opacity:1;" offset="0.632812"/><stop style="stop-color:#dba178;stop-opacity:1;" offset="0.640625"/><stop style="stop-color:#dba279;stop-opacity:1;" offset="0.648438"/><stop style="stop-color:#dca379;stop-opacity:1;" offset="0.65625"/><stop style="stop-color:#dda37a;stop-opacity:1;" offset="0.664062"/><stop style="stop-color:#dea47a;stop-opacity:1;" offset="0.671875"/><stop style="stop-color:#dea57b;stop-opacity:1;" offset="0.679688"/><stop style="stop-color:#dfa57b;stop-opacity:1;" offset="0.6875"/><stop style="stop-color:#e0a67c;stop-opacity:1;" offset="0.695312"/><stop style="stop-color:#e0a67c;stop-opacity:1;" offset="0.703125"/><stop style="stop-color:#e1a77d;stop-opacity:1;" offset="0.710938"/><stop style="stop-color:#e2a87d;stop-opacity:1;" offset="0.71875"/><stop style="stop-color:#e3a87e;stop-opacity:1;" offset="0.726562"/><stop style="stop-color:#e3a97f;stop-opacity:1;" offset="0.734375"/><stop style="stop-color:#e4aa7f;stop-opacity:1;" offset="0.742188"/><stop style="stop-color:#e5aa80;stop-opacity:1;" offset="0.75"/><stop style="stop-color:#e5ab80;stop-opacity:1;" offset="0.757812"/><stop style="stop-color:#e6ab81;stop-opacity:1;" offset="0.764504"/><stop style="stop-color:#e6ac81;stop-opacity:1;" offset="0.765625"/><stop style="stop-color:#e7ac81;stop-opacity:1;" offset="0.773438"/><stop style="stop-color:#e7ad82;stop-opacity:1;" offset="0.78125"/><stop style="stop-color:#e8ad82;stop-opacity:1;" offset="0.789062"/><stop style="stop-color:#e9ae83;stop-opacity:1;" offset="0.796875"/><stop style="stop-color:#eaaf83;stop-opacity:1;" offset="0.804688"/><stop style="stop-color:#eaaf84;stop-opacity:1;" offset="0.8125"/><stop style="stop-color:#ebb084;stop-opacity:1;" offset="0.820312"/><stop style="stop-color:#ecb085;stop-opacity:1;" offset="0.828125"/><stop style="stop-color:#ecb185;stop-opacity:1;" offset="0.835938"/><stop style="stop-color:#edb286;stop-opacity:1;" offset="0.84375"/><stop style="stop-color:#eeb286;stop-opacity:1;" offset="0.851562"/><stop style="stop-color:#eeb387;stop-opacity:1;" offset="0.859375"/><stop style="stop-color:#efb488;stop-opacity:1;" offset="0.867187"/><stop style="stop-color:#f0b488;stop-opacity:1;" offset="0.875"/><stop style="stop-color:#f1b589;stop-opacity:1;" offset="0.882812"/><stop style="stop-color:#f1b589;stop-opacity:1;" offset="0.890625"/><stop style="stop-color:#f2b68a;stop-opacity:1;" offset="0.898438"/><stop style="stop-color:#f3b78a;stop-opacity:1;" offset="0.90625"/><stop style="stop-color:#f3b78b;stop-opacity:1;" offset="0.914062"/><stop style="stop-color:#f4b88b;stop-opacity:1;" offset="0.921875"/><stop style="stop-color:#f5b98c;stop-opacity:1;" offset="0.9375"/><stop style="stop-color:#f5b98c;stop-opacity:1;" offset="1"/></linearGradient></defs><g id="a9dc7c6080"><g clip-rule="nonzero" clip-path="url(#ceb337ee0b)"><g clip-rule="evenodd" clip-path="url(#4683048b97)"><path style=" stroke:none;fill-rule:nonzero;fill:url(#f09007bd8d);" d="M 13.867188 34.757812 L 13.867188 114.957031 L 94.0625 114.957031 L 94.0625 34.757812 Z M 13.867188 34.757812 "/></g></g><g style="fill:#ffffff;fill-opacity:1;"><g transform="translate(112.484629, 105.027895)"><path style="stroke:none" d="M 12.132812 -10.402344 L 6.933594 -10.402344 L 6.933594 0 L 5.199219 0 L 5.199219 -10.402344 L 0 -10.402344 L 0 -12.132812 L 12.132812 -12.132812 Z M 12.132812 -10.402344 "/></g></g><g style="fill:#ffffff;fill-opacity:1;"><g transform="translate(129.584293, 105.027895)"><path style="stroke:none" d="M 2.601562 -10.402344 L 2.601562 -6.933594 L 11.265625 -6.933594 L 11.265625 -5.199219 L 2.601562 -5.199219 L 2.601562 -1.734375 L 13 -1.734375 L 13 0 L 0.867188 0 L 0.867188 -12.132812 L 13 -12.132812 L 13 -10.402344 Z M 2.601562 -10.402344 "/></g></g><g style="fill:#ffffff;fill-opacity:1;"><g transform="translate(148.069597, 105.027895)"><path style="stroke:none" d="M 4.160156 -12.132812 L 9.359375 -12.132812 C 9.984375 -12.132812 10.554688 -11.976562 11.066406 -11.664062 C 11.582031 -11.355469 12 -10.9375 12.324219 -10.417969 C 12.648438 -9.898438 12.816406 -9.3125 12.828125 -8.667969 L 11.09375 -8.667969 C 11.09375 -9.140625 10.921875 -9.546875 10.582031 -9.890625 C 10.242188 -10.230469 9.835938 -10.402344 9.359375 -10.402344 L 4.160156 -10.402344 C 3.6875 -10.402344 3.277344 -10.230469 2.9375 -9.890625 C 2.597656 -9.546875 2.425781 -9.140625 2.425781 -8.667969 L 2.425781 -3.46875 C 2.425781 -2.992188 2.597656 -2.585938 2.9375 -2.246094 C 3.277344 -1.902344 3.6875 -1.734375 4.160156 -1.734375 L 9.359375 -1.734375 C 9.835938 -1.734375 10.242188 -1.902344 10.582031 -2.246094 C 10.921875 -2.585938 11.09375 -2.992188 11.09375 -3.46875 L 12.828125 -3.46875 C 12.828125 -2.855469 12.675781 -2.285156 12.367188 -1.757812 C 12.0625 -1.234375 11.644531 -0.808594 11.121094 -0.484375 C 10.59375 -0.160156 10.007812 0 9.359375 0 L 4.160156 0 C 3.546875 0 2.976562 -0.152344 2.445312 -0.460938 C 1.914062 -0.765625 1.488281 -1.179688 1.171875 -1.707031 C 0.851562 -2.234375 0.695312 -2.820312 0.695312 -3.46875 L 0.695312 -8.667969 C 0.695312 -9.292969 0.847656 -9.863281 1.152344 -10.382812 C 1.457031 -10.902344 1.875 -11.320312 2.402344 -11.640625 C 2.925781 -11.957031 3.511719 -12.121094 4.160156 -12.132812 Z M 4.160156 -12.132812 "/></g></g><g style="fill:#ffffff;fill-opacity:1;"><g transform="translate(166.381711, 105.027895)"><path style="stroke:none" d="M 2.601562 -12.132812 L 2.601562 -6.933594 L 11.265625 -6.933594 L 11.265625 -12.132812 L 13 -12.132812 L 13 0 L 11.265625 0 L 11.265625 -5.199219 L 2.601562 -5.199219 L 2.601562 0 L 0.867188 0 L 0.867188 -12.132812 Z M 2.601562 -12.132812 "/></g></g><g style="fill:#ffffff;fill-opacity:1;"><g transform="translate(185.213435, 105.027895)"><path style="stroke:none" d=""/></g></g><g style="fill:#ffffff;fill-opacity:1;"><g transform="translate(197.116917, 105.027895)"><path style="stroke:none" d="M 2.601562 -10.402344 L 2.601562 -6.933594 L 11.265625 -6.933594 L 11.265625 -5.199219 L 2.601562 -5.199219 L 2.601562 -1.734375 L 13 -1.734375 L 13 0 L 0.867188 0 L 0.867188 -12.132812 L 13 -12.132812 L 13 -10.402344 Z M 2.601562 -10.402344 "/></g></g><g style="fill:#ffffff;fill-opacity:1;"><g transform="translate(215.602221, 105.027895)"><path style="stroke:none" d="M 10.921875 -12.132812 L 12.652344 -12.132812 L 12.652344 -9.535156 L 8.027344 -6.050781 L 12.652344 -2.566406 L 12.652344 0 L 10.921875 0 L 10.921875 -1.699219 L 6.585938 -4.957031 L 2.253906 -1.699219 L 2.253906 0 L 0.519531 0 L 0.519531 -2.566406 L 5.148438 -6.050781 L 0.519531 -9.535156 L 0.519531 -12.132812 L 2.253906 -12.132812 L 2.253906 -10.402344 L 6.585938 -7.140625 L 10.921875 -10.402344 Z M 10.921875 -12.132812 "/></g></g><g style="fill:#ffffff;fill-opacity:1;"><g transform="translate(233.741124, 105.027895)"><path style="stroke:none" d="M 11.265625 -6.933594 L 11.265625 -8.667969 C 11.265625 -9.140625 11.097656 -9.546875 10.753906 -9.890625 C 10.414062 -10.230469 10.007812 -10.402344 9.535156 -10.402344 L 2.601562 -10.402344 L 2.601562 -5.199219 L 9.535156 -5.199219 C 10.007812 -5.199219 10.414062 -5.371094 10.753906 -5.710938 C 11.097656 -6.050781 11.265625 -6.460938 11.265625 -6.933594 Z M 13 -8.667969 L 13 -6.933594 C 13 -6.320312 12.847656 -5.753906 12.542969 -5.226562 C 12.234375 -4.699219 11.820312 -4.277344 11.292969 -3.953125 C 10.765625 -3.628906 10.179688 -3.46875 9.535156 -3.46875 L 2.601562 -3.46875 L 2.601562 0 L 0.867188 0 L 0.867188 -12.132812 L 9.535156 -12.132812 C 10.15625 -12.132812 10.726562 -11.976562 11.242188 -11.664062 C 11.753906 -11.355469 12.175781 -10.9375 12.496094 -10.417969 C 12.820312 -9.898438 12.988281 -9.3125 13 -8.667969 Z M 13 -8.667969 "/></g></g><g style="fill:#ffffff;fill-opacity:1;"><g transform="translate(252.226429, 105.027895)"><path style="stroke:none" d="M 2.601562 -10.402344 L 2.601562 -6.933594 L 11.265625 -6.933594 L 11.265625 -5.199219 L 2.601562 -5.199219 L 2.601562 -1.734375 L 13 -1.734375 L 13 0 L 0.867188 0 L 0.867188 -12.132812 L 13 -12.132812 L 13 -10.402344 Z M 2.601562 -10.402344 "/></g></g><g style="fill:#ffffff;fill-opacity:1;"><g transform="translate(270.711733, 105.027895)"><path style="stroke:none" d="M 11.265625 -6.933594 L 11.265625 -8.667969 C 11.265625 -9.140625 11.097656 -9.546875 10.753906 -9.890625 C 10.414062 -10.230469 10.007812 -10.402344 9.535156 -10.402344 L 2.601562 -10.402344 L 2.601562 -5.199219 L 9.535156 -5.199219 C 10.007812 -5.199219 10.414062 -5.371094 10.753906 -5.710938 C 11.097656 -6.050781 11.265625 -6.460938 11.265625 -6.933594 Z M 13 0 L 11.769531 0 L 8.304688 -3.46875 L 2.601562 -3.46875 L 2.601562 0 L 0.867188 0 L 0.867188 -12.132812 L 9.535156 -12.132812 C 10.144531 -12.132812 10.714844 -11.976562 11.242188 -11.664062 C 11.765625 -11.355469 12.191406 -10.9375 12.515625 -10.417969 C 12.839844 -9.898438 13 -9.3125 13 -8.667969 L 13 -6.933594 C 13 -6.195312 12.777344 -5.519531 12.332031 -4.914062 C 11.886719 -4.308594 11.308594 -3.882812 10.589844 -3.640625 L 13 -1.230469 Z M 13 0 "/></g></g><g style="fill:#ffffff;fill-opacity:1;"><g transform="translate(289.370247, 105.027895)"><path style="stroke:none" d="M 12.132812 -10.402344 L 6.933594 -10.402344 L 6.933594 0 L 5.199219 0 L 5.199219 -10.402344 L 0 -10.402344 L 0 -12.132812 L 12.132812 -12.132812 Z M 12.132812 -10.402344 "/></g></g><g style="fill:#ffffff;fill-opacity:1;"><g transform="translate(306.469911, 105.027895)"><path style="stroke:none" d="M 12.828125 -3.46875 C 12.828125 -2.855469 12.675781 -2.285156 12.367188 -1.757812 C 12.0625 -1.234375 11.644531 -0.808594 11.121094 -0.484375 C 10.59375 -0.160156 10.007812 0 9.359375 0 L 4.160156 0 C 3.535156 0 2.964844 -0.152344 2.445312 -0.460938 C 1.925781 -0.765625 1.507812 -1.179688 1.195312 -1.707031 C 0.882812 -2.234375 0.714844 -2.820312 0.695312 -3.46875 L 2.425781 -3.46875 C 2.425781 -2.992188 2.597656 -2.585938 2.9375 -2.246094 C 3.277344 -1.902344 3.6875 -1.734375 4.160156 -1.734375 L 9.359375 -1.734375 C 9.835938 -1.734375 10.242188 -1.902344 10.582031 -2.246094 C 10.921875 -2.585938 11.09375 -2.992188 11.09375 -3.46875 C 11.09375 -3.941406 10.921875 -4.347656 10.582031 -4.6875 C 10.242188 -5.03125 9.835938 -5.199219 9.359375 -5.199219 L 4.160156 -5.199219 C 3.546875 -5.199219 2.976562 -5.351562 2.445312 -5.660156 C 1.914062 -5.964844 1.488281 -6.382812 1.171875 -6.90625 C 0.851562 -7.433594 0.695312 -8.019531 0.695312 -8.667969 C 0.695312 -9.28125 0.847656 -9.847656 1.152344 -10.375 C 1.457031 -10.898438 1.875 -11.324219 2.402344 -11.648438 C 2.925781 -11.972656 3.511719 -12.132812 4.160156 -12.132812 L 9.359375 -12.132812 C 9.984375 -12.132812 10.554688 -11.976562 11.066406 -11.664062 C 11.582031 -11.355469 12 -10.9375 12.324219 -10.417969 C 12.648438 -9.898438 12.816406 -9.3125 12.828125 -8.667969 L 11.09375 -8.667969 C 11.09375 -9.140625 10.921875 -9.546875 10.582031 -9.890625 C 10.242188 -10.230469 9.835938 -10.402344 9.359375 -10.402344 L 4.160156 -10.402344 C 3.6875 -10.402344 3.277344 -10.230469 2.9375 -9.890625 C 2.597656 -9.546875 2.425781 -9.140625 2.425781 -8.667969 C 2.425781 -8.191406 2.597656 -7.785156 2.9375 -7.445312 C 3.277344 -7.105469 3.6875 -6.933594 4.160156 -6.933594 L 9.359375 -6.933594 C 9.972656 -6.933594 10.542969 -6.777344 11.066406 -6.464844 C 11.59375 -6.152344 12.019531 -5.738281 12.34375 -5.21875 C 12.664062 -4.699219 12.828125 -4.113281 12.828125 -3.46875 Z M 12.828125 -3.46875 "/></g></g><g style="fill:#ffffff;fill-opacity:1;"><g transform="translate(108.735371, 80.300734)"><path style="stroke:none" d="M 22.515625 -30.453125 L 22.515625 -24.515625 L 10.109375 -24.515625 L 10.109375 -18.09375 L 19.390625 -18.09375 L 19.390625 -12.328125 L 10.109375 -12.328125 L 10.109375 0 L 2.6875 0 L 2.6875 -30.453125 Z M 22.515625 -30.453125 "/></g></g><g style="fill:#ffffff;fill-opacity:1;"><g transform="translate(132.469828, 80.300734)"><path style="stroke:none" d="M 10.109375 -5.734375 L 19.828125 -5.734375 L 19.828125 0 L 2.6875 0 L 2.6875 -30.453125 L 10.109375 -30.453125 Z M 10.109375 -5.734375 "/></g></g><g style="fill:#ffffff;fill-opacity:1;"><g transform="translate(153.166966, 80.300734)"><path style="stroke:none" d="M 17.09375 0.296875 C 14.226562 0.296875 11.601562 -0.363281 9.21875 -1.6875 C 6.832031 -3.019531 4.9375 -4.878906 3.53125 -7.265625 C 2.132812 -9.648438 1.4375 -12.332031 1.4375 -15.3125 C 1.4375 -18.289062 2.132812 -20.96875 3.53125 -23.34375 C 4.9375 -25.71875 6.832031 -27.566406 9.21875 -28.890625 C 11.601562 -30.222656 14.226562 -30.890625 17.09375 -30.890625 C 19.957031 -30.890625 22.582031 -30.222656 24.96875 -28.890625 C 27.351562 -27.566406 29.234375 -25.71875 30.609375 -23.34375 C 31.984375 -20.96875 32.671875 -18.289062 32.671875 -15.3125 C 32.671875 -12.332031 31.972656 -9.648438 30.578125 -7.265625 C 29.191406 -4.878906 27.3125 -3.019531 24.9375 -1.6875 C 22.570312 -0.363281 19.957031 0.296875 17.09375 0.296875 Z M 17.09375 -6.46875 C 19.519531 -6.46875 21.460938 -7.273438 22.921875 -8.890625 C 24.390625 -10.515625 25.125 -12.65625 25.125 -15.3125 C 25.125 -18.007812 24.390625 -20.160156 22.921875 -21.765625 C 21.460938 -23.367188 19.519531 -24.171875 17.09375 -24.171875 C 14.632812 -24.171875 12.675781 -23.375 11.21875 -21.78125 C 9.757812 -20.1875 9.03125 -18.03125 9.03125 -15.3125 C 9.03125 -12.625 9.757812 -10.476562 11.21875 -8.875 C 12.675781 -7.269531 14.632812 -6.46875 17.09375 -6.46875 Z M 17.09375 -6.46875 "/></g></g><g style="fill:#ffffff;fill-opacity:1;"><g transform="translate(187.271695, 80.300734)"><path style="stroke:none" d="M 18.21875 0 L 11.890625 -11.5 L 10.109375 -11.5 L 10.109375 0 L 2.6875 0 L 2.6875 -30.453125 L 15.140625 -30.453125 C 17.546875 -30.453125 19.59375 -30.03125 21.28125 -29.1875 C 22.976562 -28.351562 24.242188 -27.207031 25.078125 -25.75 C 25.921875 -24.289062 26.34375 -22.664062 26.34375 -20.875 C 26.34375 -18.84375 25.769531 -17.03125 24.625 -15.4375 C 23.476562 -13.851562 21.789062 -12.726562 19.5625 -12.0625 L 26.59375 0 Z M 10.109375 -16.75 L 14.703125 -16.75 C 16.066406 -16.75 17.085938 -17.082031 17.765625 -17.75 C 18.441406 -18.414062 18.78125 -19.351562 18.78125 -20.5625 C 18.78125 -21.71875 18.441406 -22.628906 17.765625 -23.296875 C 17.085938 -23.960938 16.066406 -24.296875 14.703125 -24.296875 L 10.109375 -24.296875 Z M 10.109375 -16.75 "/></g></g><g style="fill:#ffffff;fill-opacity:1;"><g transform="translate(215.56213, 80.300734)"><path style="stroke:none" d="M 10.109375 -30.453125 L 10.109375 0 L 2.6875 0 L 2.6875 -30.453125 Z M 10.109375 -30.453125 "/></g></g><g style="fill:#ffffff;fill-opacity:1;"><g transform="translate(228.362239, 80.300734)"><path style="stroke:none" d="M 14.109375 -30.453125 C 17.316406 -30.453125 20.117188 -29.816406 22.515625 -28.546875 C 24.921875 -27.273438 26.78125 -25.488281 28.09375 -23.1875 C 29.40625 -20.894531 30.0625 -18.242188 30.0625 -15.234375 C 30.0625 -12.253906 29.40625 -9.601562 28.09375 -7.28125 C 26.78125 -4.96875 24.914062 -3.175781 22.5 -1.90625 C 20.082031 -0.632812 17.285156 0 14.109375 0 L 2.6875 0 L 2.6875 -30.453125 Z M 13.625 -6.421875 C 16.425781 -6.421875 18.609375 -7.1875 20.171875 -8.71875 C 21.734375 -10.25 22.515625 -12.421875 22.515625 -15.234375 C 22.515625 -18.035156 21.734375 -20.21875 20.171875 -21.78125 C 18.609375 -23.34375 16.425781 -24.125 13.625 -24.125 L 10.109375 -24.125 L 10.109375 -6.421875 Z M 13.625 -6.421875 "/></g></g><g style="fill:#ffffff;fill-opacity:1;"><g transform="translate(259.906932, 80.300734)"><path style="stroke:none" d="M 21.65625 -5.375 L 10.28125 -5.375 L 8.46875 0 L 0.6875 0 L 11.71875 -30.453125 L 20.3125 -30.453125 L 31.328125 0 L 23.46875 0 Z M 19.75 -11.109375 L 15.96875 -22.265625 L 12.234375 -11.109375 Z M 19.75 -11.109375 "/></g></g><g style="fill:#ffffff;fill-opacity:1;"><g transform="translate(291.88668, 80.300734)"><path style="stroke:none" d=""/></g></g></g></svg>